<svg width="16" height="32" viewBox="0 0 37 74" fill="none" xmlns="http://www.w3.org/2000/svg"><path d="M5.213 4.92c.524.21.911.553 1.164 1.031.252.478.379 1.127.379 1.946v4.641H4.87l-.157-.77h-.107a2.069 2.069 0 01-.879.688 3.05 3.05 0 01-1.193.225c-.523 0-.975-.095-1.356-.282a2.03 2.03 0 01-.875-.793A2.284 2.284 0 010 10.418c0-.747.26-1.326.782-1.735.521-.41 1.343-.65 2.467-.721l1.271-.107v-.1c0-.362-.058-.646-.175-.85a.98.98 0 00-.557-.439c-.254-.088-.603-.133-1.046-.133a7.711 7.711 0 00-2.121.314V4.934a8.704 8.704 0 011.235-.243 10.32 10.32 0 011.292-.085c.854 0 1.541.105 2.065.314zm-1.271 6.06a1.6 1.6 0 00.578-.376V9.14l-1.042.078c-.428.033-.74.131-.936.296-.195.164-.293.394-.293.69 0 .29.088.51.264.663.177.153.434.229.771.229.225.001.443-.039.658-.117zM7.96 1h2.286v4.513h.107c.267-.295.58-.52.943-.675a3.026 3.026 0 011.206-.232c.771 0 1.39.247 1.857.742.467.495.7 1.27.7 2.328v4.863h-2.285V7.826c0-.456-.093-.78-.278-.97-.185-.19-.459-.286-.82-.286-.267 0-.53.055-.79.164-.259.11-.472.27-.639.478v5.327H7.961V1zm9.723 11.239a3.06 3.06 0 01-1.314-1.353c-.307-.602-.46-1.345-.46-2.232 0-1.343.33-2.353.992-3.03.662-.68 1.602-1.018 2.821-1.018 1.214 0 2.152.34 2.818 1.021.664.68.995 1.686.995 3.014 0 .89-.154 1.637-.46 2.241a3.04 3.04 0 01-1.313 1.357c-.569.3-1.249.45-2.038.45-.792 0-1.471-.15-2.04-.45zm2.875-1.5c.218-.142.386-.382.504-.717.116-.335.175-.79.175-1.36 0-.581-.059-1.043-.175-1.385-.117-.343-.286-.586-.508-.729-.221-.143-.499-.213-.832-.213-.332 0-.61.072-.831.213-.221.143-.39.382-.507.717-.116.336-.175.792-.175 1.368 0 .581.059 1.042.175 1.382.117.34.285.582.504.724.219.143.498.215.836.215.336 0 .614-.072.834-.215zm3.891-6.012h1.864l.179 1.007h.107c.214-.376.5-.655.856-.84a2.617 2.617 0 011.214-.275c.228 0 .438.019.628.057V6.74a3.878 3.878 0 00-.771-.064 2.73 2.73 0 00-1.021.2c-.333.134-.591.316-.771.55v5.112h-2.285v-7.81zm10.475.193c.524.21.911.553 1.164 1.031.252.478.379 1.127.379 1.946v4.641h-1.885l-.158-.77h-.107a2.07 2.07 0 01-.879.688 3.05 3.05 0 01-1.192.225c-.524 0-.976-.095-1.357-.282a2.03 2.03 0 01-.875-.793 2.285 2.285 0 01-.304-1.19c0-.746.26-1.325.782-1.734.521-.41 1.343-.65 2.467-.722l1.271-.106v-.1c0-.362-.058-.646-.175-.85a.98.98 0 00-.557-.44c-.254-.087-.603-.132-1.046-.132a7.711 7.711 0 00-2.121.314V4.934a8.702 8.702 0 011.235-.243 10.32 10.32 0 011.292-.085c.854 0 1.542.105 2.066.314zm-1.27 6.06c.214-.08.406-.205.578-.376V9.14l-1.043.078c-.428.033-.741.131-.936.296-.195.164-.293.394-.293.69 0 .29.088.51.265.663.176.153.433.229.77.229.225.001.444-.039.658-.117zm-5.57 23.13c.955 1.123 1.433 2.601 1.433 4.432 0 2.714-1.053 4.82-3.157 6.313-2.104 1.494-5.235 2.24-9.392 2.24a32.67 32.67 0 01-7.871-.935v-6.196c1.13.286 2.367.514 3.71.682 1.345.169 2.608.253 3.79.253 1.766 0 3.04-.237 3.82-.711.779-.474 1.168-1.205 1.168-2.192 0-.987-.383-1.712-1.149-2.172-.767-.46-2.071-.692-3.916-.692h-4.735v-6.274h4.209c1.65 0 2.815-.217 3.498-.653.681-.435 1.022-1.074 1.022-1.918 0-.884-.343-1.54-1.032-1.969-.69-.428-1.813-.643-3.371-.643a21.34 21.34 0 00-3.41.292 19.848 19.848 0 00-3.215.78V18.55c.961-.311 2.15-.568 3.566-.77a28.745 28.745 0 014.033-.3c3.805 0 6.674.688 8.602 2.064 1.93 1.378 2.894 3.36 2.894 5.943 0 1.572-.41 2.917-1.228 4.033-.818 1.117-1.949 1.89-3.39 2.318 1.793.391 3.167 1.148 4.121 2.272zM16.255 73.077L1.219 57.564C-.521 55.77.85 52.91 3.451 52.91h30.07c2.601 0 3.971 2.86 2.233 4.655L20.717 73.077c-1.193 1.23-3.27 1.23-4.462 0z" fill="#3FB4DB"/></svg>