<svg width="16" height="32" viewBox="0 0 37 74" fill="none" xmlns="http://www.w3.org/2000/svg"><path d="M24.412 29.965a7.358 7.358 0 013.353 2.943c.814 1.33 1.223 2.999 1.223 5.006 0 1.904-.437 3.562-1.311 4.977-.874 1.415-2.139 2.506-3.794 3.276-1.656.77-3.612 1.154-5.867 1.154-2.464 0-4.603-.5-6.415-1.496-1.812-.998-3.217-2.532-4.214-4.605-.997-2.072-1.495-4.68-1.495-7.822 0-3.467.59-6.378 1.77-8.731 1.179-2.354 2.897-4.12 5.153-5.3 2.255-1.18 5-1.77 8.233-1.77 2.594 0 4.713.3 6.356.9v6.375c-1.812-.6-3.78-.9-5.906-.9-2.359 0-4.143.527-5.348 1.583-1.206 1.057-1.874 2.647-2.004 4.772.73-.417 1.564-.74 2.503-.969a12.11 12.11 0 012.875-.342c1.837.001 3.466.316 4.887.95zm-3.941 10.55c.593-.535.89-1.323.89-2.365 0-1.069-.317-1.868-.949-2.396-.633-.527-1.515-.792-2.65-.792-1.343 0-2.549.32-3.617.959.064 1.381.264 2.467.597 3.255.332.79.769 1.343 1.31 1.662.541.32 1.21.48 2.005.48 1.015 0 1.82-.268 2.414-.803zM5.213 4.92c.524.21.911.553 1.164 1.031.252.478.379 1.127.379 1.946v4.641H4.87l-.157-.77h-.107a2.069 2.069 0 01-.879.688 3.05 3.05 0 01-1.193.225c-.523 0-.975-.095-1.356-.282a2.03 2.03 0 01-.875-.793A2.284 2.284 0 010 10.418c0-.747.26-1.326.782-1.735.521-.41 1.343-.65 2.467-.721l1.271-.107v-.1c0-.362-.058-.646-.175-.85a.98.98 0 00-.557-.439c-.254-.088-.603-.133-1.046-.133a7.711 7.711 0 00-2.121.314V4.934a8.704 8.704 0 011.235-.243 10.32 10.32 0 011.292-.085c.854 0 1.541.105 2.065.314zm-1.271 6.06a1.6 1.6 0 00.578-.376V9.14l-1.042.078c-.428.033-.74.131-.936.296-.195.164-.293.394-.293.69 0 .29.088.51.264.663.177.153.434.229.771.229.225.001.443-.039.658-.117zM7.96 1h2.286v4.513h.107c.267-.295.58-.52.943-.675a3.026 3.026 0 011.206-.232c.771 0 1.39.247 1.857.742.467.495.7 1.27.7 2.328v4.863h-2.285V7.826c0-.456-.093-.78-.278-.97-.185-.19-.459-.286-.82-.286-.267 0-.53.055-.79.164-.259.11-.472.27-.639.478v5.327H7.961V1zm9.702 11.233a3.06 3.06 0 01-1.314-1.353c-.307-.602-.46-1.346-.46-2.232 0-1.343.33-2.353.992-3.03.662-.68 1.603-1.019 2.821-1.019 1.214 0 2.153.34 2.818 1.022.664.68.995 1.685.995 3.013 0 .89-.154 1.638-.46 2.242a3.04 3.04 0 01-1.313 1.357c-.569.3-1.249.449-2.038.449-.792.001-1.471-.149-2.04-.45zm2.875-1.5c.218-.143.386-.382.504-.717.116-.335.175-.79.175-1.36 0-.581-.059-1.043-.175-1.386-.117-.342-.286-.585-.508-.728-.221-.143-.499-.214-.832-.214-.332 0-.61.072-.831.214-.221.143-.39.382-.507.717-.116.335-.175.792-.175 1.368 0 .58.059 1.041.175 1.381.117.34.285.583.504.725.219.143.498.215.836.215.336 0 .614-.072.834-.215zm3.912-6.006h1.864l.179 1.007h.107c.214-.376.5-.655.856-.84a2.617 2.617 0 011.214-.275c.228 0 .438.019.628.057V6.74a3.878 3.878 0 00-.771-.064 2.73 2.73 0 00-1.021.2c-.333.134-.591.316-.771.55v5.112h-2.285v-7.81zm10.475.193c.524.21.911.553 1.164 1.031.252.478.379 1.127.379 1.946v4.641h-1.885l-.158-.77h-.107a2.07 2.07 0 01-.879.688 3.05 3.05 0 01-1.192.225c-.524 0-.976-.095-1.357-.282a2.03 2.03 0 01-.875-.793 2.285 2.285 0 01-.304-1.19c0-.746.26-1.325.782-1.734.521-.41 1.343-.65 2.467-.722l1.271-.106v-.1c0-.362-.058-.646-.175-.85a.98.98 0 00-.557-.44c-.254-.087-.603-.132-1.046-.132a7.711 7.711 0 00-2.121.314V4.934a8.702 8.702 0 011.235-.243 10.32 10.32 0 011.292-.085c.854 0 1.542.105 2.066.314zm-1.27 6.06c.214-.08.406-.205.578-.376V9.14l-1.043.078c-.428.033-.74.131-.936.296-.195.164-.293.394-.293.69 0 .29.088.51.265.663.176.153.433.229.77.229.225.001.444-.039.658-.117zM16.255 73.077L1.219 57.564C-.521 55.77.85 52.91 3.451 52.91h30.07c2.601 0 3.971 2.86 2.233 4.655L20.717 73.077c-1.193 1.23-3.27 1.23-4.462 0z" fill="#3FB4DB"/></svg>