<svg width="64" height="32" viewBox="0 0 320 160" fill="none" xmlns="http://www.w3.org/2000/svg"><g clip-path="url(#clip0)"><path d="M43.052 0h86.1v86.1h-86.1V0z" fill="#fff"/><path d="M129.15 86.1l43.05-43.05L129.15 0v86.1z" fill="#000"/><path d="M43.052 0l43.05 43.05L129.152 0h-86.1zm-.002 0L0 43.05 43.05 86.1V0zm86.102 86.1l-43.05-43.05-43.05 43.05h86.1zm65.246-25.05h-7.85V25h7.85v14.75h15.6V25h7.85v36.05h-7.85V45.6h-15.6v15.45zm42.198.648c-7.8 0-14.2-3.1-14.35-11.65h7.75a5.895 5.895 0 001.871 4.61 5.892 5.892 0 004.729 1.54c3.15 0 6.8-1.6 6.8-5 0-2.75-2.45-3.7-6.5-5l-2.55-.75c-5.7-1.65-11.3-3.8-11.3-10.3 0-8.05 7.45-10.7 14.3-10.7 6.85 0 13.1 2.45 13.15 10.45h-7.7a5.005 5.005 0 00-1.751-3.874 4.993 4.993 0 00-4.099-1.126c-2.95 0-5.85 1.5-5.85 4.75s2.4 3.4 7.5 5l2.95.95c6.2 1.9 10 4.05 10 10 0 8.1-8 11.25-15 11.25M255.997 25h12.55a34.877 34.877 0 017.1.45 8.797 8.797 0 017.65 8.65 8.146 8.146 0 01-7.2 8.15c5 .9 8.45 3.35 8.45 8.7 0 8.2-8.05 10-14.4 10h-14.2V25h.05zm12.65 15c3.4 0 6.9-.75 6.9-5s-3.3-5-6.4-5h-5.5v10h5zm.7 15.65c3.65 0 7.25-.85 7.25-5s-3.1-5.5-6.6-5.5h-6.4v10.5h5.75zm35.652 6.05c-11.6 0-16.85-7.45-16.85-18.4s5.85-19 17.25-19c7.2 0 14.2 3.15 14.4 11.35h-8.05a5.794 5.794 0 00-1.979-4.092 5.8 5.8 0 00-4.321-1.409c-7 0-9.15 7.6-9.15 13.35s2.15 12.4 8.9 12.4a6.253 6.253 0 006.7-5.55h8.1c-.9 8.25-7.55 11.35-15 11.35zm-194.997 45.199l11.45 28.3h-4.45l-3.1-7.35h-13.15l-3.05 7.35h-4.05l11.95-28.3h4.4zm-7.95 17.85h10.7l-5.25-13.95-5.45 13.95zm34.247-2.898a4.397 4.397 0 00-1.3-3.1 3.844 3.844 0 00-2.75-1 4.296 4.296 0 00-3.8 1.85 10.001 10.001 0 00-1.3 5.6 10.856 10.856 0 001.25 5.85 4.448 4.448 0 005.025 1.693 4.448 4.448 0 001.625-.943 4.548 4.548 0 001.25-3.15h3.7a7.252 7.252 0 01-2.4 5 7.752 7.752 0 01-5.5 2 8.357 8.357 0 01-6.6-2.65 11.152 11.152 0 01-2.3-7.45 11.454 11.454 0 012.5-7.85 8.357 8.357 0 016.4-2.8 8.192 8.192 0 015.5 1.85 6.458 6.458 0 012.25 5l-3.55.1zm19.65-.002a4.654 4.654 0 00-.95-3.1 3.796 3.796 0 00-2.75-1 4.348 4.348 0 00-3.8 1.85 10.001 10.001 0 00-1.3 5.6 10.843 10.843 0 001.25 5.85 4.452 4.452 0 005.025 1.693 4.45 4.45 0 001.625-.943 4.55 4.55 0 001.3-3.15h3.65a7.252 7.252 0 01-2.4 5 7.75 7.75 0 01-5.5 2 8.2 8.2 0 01-6.55-2.65 10.9 10.9 0 01-2.3-7.45 11.199 11.199 0 012.5-7.85 8.9 8.9 0 0111.9-.95 6.597 6.597 0 012.2 5l-3.9.1zm24.75 4.201h-14.15v.3a7.647 7.647 0 001.5 5 4.997 4.997 0 004.15 1.8 4.65 4.65 0 003.2-1.05 4.342 4.342 0 001.45-3.05h3.7a6.807 6.807 0 01-2.5 5 9.244 9.244 0 01-6 1.85 8.542 8.542 0 01-7.05-2.75 11.398 11.398 0 01-2.3-7.6c-.2-2.816.675-5.604 2.45-7.8a8.555 8.555 0 016.85-2.75 8.16 8.16 0 016.4 2.4 10.348 10.348 0 012.1 7.05l.2 1.6zm-3.75-2.6v-.3a6.098 6.098 0 00-1.2-4.05 4.35 4.35 0 00-3.65-1.45 5.014 5.014 0 00-3.9 1.6 5.851 5.851 0 00-1.5 4.2h10.25zm23.053-2.449h-3.75v-.25a2.587 2.587 0 00-.207-1.216 2.591 2.591 0 00-.743-.984 4.396 4.396 0 00-2.85-.8 4.992 4.992 0 00-2.95.75 2.298 2.298 0 00-1.05 2.1c0 1.2.8 2 2.4 2.4l4.55 1.1a8.642 8.642 0 013.85 1.9 4.692 4.692 0 011.3 3.45 5.547 5.547 0 01-2.15 4.55 9.408 9.408 0 01-6.25 1.8 9.005 9.005 0 01-5.8-1.7 5.7 5.7 0 01-2-4.7h3.85a3.2 3.2 0 001.15 2.6 4.602 4.602 0 003.2.95 5.011 5.011 0 003-.85 2.707 2.707 0 001.05-2.25 2.055 2.055 0 00-1.1-2 15.674 15.674 0 00-3.2-.95 20.614 20.614 0 01-3.85-1.05 5.802 5.802 0 01-2.7-1.75 4.351 4.351 0 01-1-3.1 5.006 5.006 0 012.1-4.25 8.34 8.34 0 015.55-1.7 10.844 10.844 0 015.45 1.3 4.446 4.446 0 012.15 4.1v.55zm19.698 0h-3.8v-.25a2.6 2.6 0 00-.95-2.2 4.401 4.401 0 00-2.85-.8 5.003 5.003 0 00-2.95.75 2.306 2.306 0 00-1.05 2.1c0 1.2.8 2 2.4 2.4l4.55 1.1c1.438.3 2.778.953 3.9 1.9a4.997 4.997 0 011.25 3.45 5.553 5.553 0 01-2.15 4.55 9.396 9.396 0 01-6.25 1.8 9.003 9.003 0 01-5.8-1.7 5.708 5.708 0 01-2-4.7h3.85a3.202 3.202 0 001.15 2.6 4.696 4.696 0 003.2.95 4.997 4.997 0 003-.85 2.692 2.692 0 001.05-2.25 2.044 2.044 0 00-1.1-2 15.001 15.001 0 00-3.2-.95 21.67 21.67 0 01-3.85-1.05 6.059 6.059 0 01-2.7-1.75 4.354 4.354 0 01-1-3.1 4.995 4.995 0 012.1-4.25 8.456 8.456 0 015.55-1.7 10.604 10.604 0 015.45 1.3 4.489 4.489 0 011.671 1.744c.388.722.571 1.537.529 2.356v.55zm22.3-14.102l13.9 23.4v-23.4h3.65v28.3h-5l-14.55-24v24h-3.55v-28.3H242zm26 26.202a10.894 10.894 0 01-2.7-7.8 10.7 10.7 0 012.6-7.5 9.306 9.306 0 017.1-2.8 9.506 9.506 0 017.25 2.85 10.902 10.902 0 012.75 7.7 10.7 10.7 0 01-2.55 7.55 9.106 9.106 0 01-7.05 2.8 9.994 9.994 0 01-7.4-2.8zm2.9-1.95a5.55 5.55 0 004.45 2.05 4.996 4.996 0 004.2-2 9.1 9.1 0 001.5-5.5 9.507 9.507 0 00-1.6-5.95 5.258 5.258 0 00-4.45-2 5.004 5.004 0 00-4.3 2.1 9.447 9.447 0 00-1.6 5.75 8.395 8.395 0 001.8 5.55zm20.898-15.602l5 15.65 5-15.65h5l4.5 15.5 5-15.5h3.85l-6.95 19.65h-4.25l-4.65-16.2-5 16.2h-4.35l-6.55-19.65h3.4z" fill="#000"/></g><defs><clipPath id="clip0"><path fill="#fff" d="M0 0h320v160H0z"/></clipPath></defs></svg>